<svg xmlns="http://www.w3.org/2000/svg" viewBox="0 0 64 64" role="img" aria-label="Thiêu đốt">
  <rect x="7" y="7" width="50" height="50" rx="6" fill="#b84236"/>
  <rect x="12" y="12" width="40" height="40" rx="3" fill="none" stroke="#f1d6c8" stroke-width="3"/>
  <path fill="#fff4e8" d="M32 48c-7.3 0-13-5-13-12.5 0-4.7 2.6-8.7 6.3-12-.3 2.6.5 4.6 1.9 5.8.4-5.9 3.4-10.3 9.2-13.4-.7 4.4 1.1 7 3 9.5 1.8 2.3 3.6 4.6 3.6 9.5C43 42.5 38 48 32 48Z"/>
  <path fill="#ffcf75" d="M32 47c-3.5 0-6.4-2.5-6.4-5.9 0-2.5 1.4-4.3 3.4-6-.1 1.7.5 3 1.6 3.8.5-3.1 2.2-5.9 4.8-7.6-.2 2.6.9 4 1.8 5.4.8 1.1 1.5 2.3 1.5 4.1 0 3.6-3.1 6.2-6.7 6.2Z"/>
</svg>
