<svg xmlns="http://www.w3.org/2000/svg" viewBox="0 0 64 64" role="img" aria-label="Mệnh Hồn Đỏ">
  <path fill="#dc2626" d="M32 60c-12.8 0-23-8.8-23-22.1 0-8.4 4.6-15.5 11.2-21.5-.5 4.6.8 8.2 3.3 10.3C24.1 16.3 29.3 8.5 39.5 3c-1.2 7.8 1.9 12.4 5.3 16.8 3.1 4 6.2 8.1 6.2 16.7C51 50.4 42.5 60 32 60Z"/>
  <path fill="#f97316" d="M32.1 58c-6.2 0-11.2-4.3-11.2-10.3 0-4.3 2.3-7.5 5.9-10.5-.2 3 .9 5.4 2.8 6.7.8-5.5 3.9-10.4 8.5-13.4-.4 4.6 1.5 7.1 3.2 9.5 1.4 2 2.7 4 2.7 7.2C44 53.5 38.5 58 32.1 58Z"/>
</svg>
